<svg id="visual" viewBox="0 0 1300 750" width="1300" height="750" xmlns="http://www.w3.org/2000/svg" xmlns:xlink="http://www.w3.org/1999/xlink" version="1.1"><rect x="0" y="0" width="1300" height="750" fill="#001220"></rect><defs><linearGradient id="grad1_0" x1="42.3%" y1="100%" x2="100%" y2="0%"><stop offset="15.333333333333332%" stop-color="#001220" stop-opacity="1"></stop><stop offset="84.66666666666666%" stop-color="#001220" stop-opacity="1"></stop></linearGradient></defs><defs><linearGradient id="grad2_0" x1="0%" y1="100%" x2="57.7%" y2="0%"><stop offset="15.333333333333332%" stop-color="#001220" stop-opacity="1"></stop><stop offset="84.66666666666666%" stop-color="#001220" stop-opacity="1"></stop></linearGradient></defs><g transform="translate(1300, 750)"><path d="M-450 0C-427.7 -56.2 -405.4 -112.4 -375.1 -155.4C-344.7 -198.3 -306.3 -228 -274.4 -274.4C-242.4 -320.7 -216.9 -383.7 -172.2 -415.7C-127.6 -447.8 -63.8 -448.9 0 -450L0 0Z" fill="#de938c"></path></g><g transform="translate(0, 0)"><path d="M450 0C449.3 64.2 448.5 128.4 415.7 172.2C383 216 318.2 239.3 272.2 272.2C226.3 305.1 199.1 347.6 156.9 378.8C114.7 410 57.3 430 0 450L0 0Z" fill="#de938c"></path></g></svg>